<svg viewBox="0 0 33 32" fill="currentColor" xmlns="http://www.w3.org/2000/svg">
<path d="M4.5 28V25.3333H0.5V22.6667H3.16667V9.33333H0.5V6.66667H4.5V4H7.16667V6.66667H9.83333V4H12.5V6.83333C13.6556 7.14444 14.6111 7.77222 15.3667 8.71667C16.1222 9.66111 16.5 10.7556 16.5 12C16.5 12.6444 16.3889 13.2611 16.1667 13.85C15.9444 14.4389 15.6333 14.9667 15.2333 15.4333C16.0111 15.9 16.6389 16.5333 17.1167 17.3333C17.5944 18.1333 17.8333 19.0222 17.8333 20C17.8333 21.4667 17.3111 22.7222 16.2667 23.7667C15.2222 24.8111 13.9667 25.3333 12.5 25.3333V28H9.83333V25.3333H7.16667V28H4.5ZM5.83333 14.6667H11.1667C11.9 14.6667 12.5278 14.4056 13.05 13.8833C13.5722 13.3611 13.8333 12.7333 13.8333 12C13.8333 11.2667 13.5722 10.6389 13.05 10.1167C12.5278 9.59444 11.9 9.33333 11.1667 9.33333H5.83333V14.6667ZM5.83333 22.6667H12.5C13.2333 22.6667 13.8611 22.4056 14.3833 21.8833C14.9056 21.3611 15.1667 20.7333 15.1667 20C15.1667 19.2667 14.9056 18.6389 14.3833 18.1167C13.8611 17.5944 13.2333 17.3333 12.5 17.3333H5.83333V22.6667Z" />
</svg>
