<svg viewBox="0 0 24 24" fill="none" xmlns="http://www.w3.org/2000/svg">
<path d="M21.7134 14.4267C20.3783 19.795 14.9404 23.0493 9.58609 21.7142C4.23172 20.3791 0.963477 14.9413 2.29859 9.5869C3.6337 4.21863 9.07151 0.964289 14.4259 2.2994C19.7941 3.62061 23.0485 9.05842 21.7134 14.4267Z" fill="#F7931A"/>
<path d="M16.4148 10.5743C16.6095 9.23921 15.5942 8.52994 14.2174 8.04318L14.6624 6.23521L13.5638 5.95706L13.1326 7.7094C12.8406 7.63986 12.5485 7.57032 12.2565 7.50079L12.7015 5.73454L11.6028 5.45639L11.1578 7.26436C10.9213 7.20873 10.6849 7.1531 10.4624 7.09747L8.94648 6.72197L8.65443 7.89019C8.65443 7.89019 9.47497 8.07099 9.44715 8.0849C9.89219 8.19616 9.97564 8.48821 9.96173 8.72464L9.44715 10.7829C9.47497 10.7968 9.51669 10.7968 9.55841 10.8247C9.51669 10.8108 9.48887 10.8108 9.44715 10.7968L8.72396 13.6757C8.66833 13.8148 8.52926 14.0095 8.2233 13.9399C8.23721 13.9538 7.43057 13.7452 7.43057 13.7452L6.88818 14.9969L8.32065 15.3585C8.58489 15.428 8.84913 15.4976 9.09946 15.5671L8.64052 17.389L9.73921 17.6671L10.1842 15.8592C10.4902 15.9426 10.7684 16.0121 11.0604 16.0817L10.6154 17.8757L11.7141 18.1539L12.173 16.332C14.0505 16.6797 15.4552 16.5406 16.0532 14.8439C16.526 13.481 16.0254 12.6883 15.0379 12.1737C15.7333 12.0207 16.2757 11.5478 16.4148 10.5743ZM13.9114 14.0929C13.5777 15.4558 11.269 14.7187 10.5319 14.5379L11.13 12.1181C11.881 12.2989 14.2591 12.6744 13.9114 14.0929ZM14.2452 10.5604C13.9393 11.7982 12.02 11.1723 11.4081 11.0194L11.9505 8.82199C12.5763 8.97497 14.579 9.26703 14.2452 10.5604Z" fill="white"/>
</svg>
