<svg viewBox="0 0 24 24" fill="currentColor" xmlns="http://www.w3.org/2000/svg">
<path d="M20.4 0H3.6C1.6152 0 0 1.6152 0 3.6V20.4C0 22.3848 1.6152 24 3.6 24H20.4C22.3848 24 24 22.3848 24 20.4V3.6C24 1.6152 22.3848 0 20.4 0ZM10.8 17.4H6C5.68174 17.4 5.37652 17.2736 5.15147 17.0485C4.92643 16.8235 4.8 16.5183 4.8 16.2C4.8 15.8817 4.92643 15.5765 5.15147 15.3515C5.37652 15.1264 5.68174 15 6 15H10.8C11.1183 15 11.4235 15.1264 11.6485 15.3515C11.8736 15.5765 12 15.8817 12 16.2C12 16.5183 11.8736 16.8235 11.6485 17.0485C11.4235 17.2736 11.1183 17.4 10.8 17.4ZM10.8 9.6H9.6V10.8C9.6 11.1183 9.47357 11.4235 9.24853 11.6485C9.02348 11.8736 8.71826 12 8.4 12C8.08174 12 7.77652 11.8736 7.55147 11.6485C7.32643 11.4235 7.2 11.1183 7.2 10.8V9.6H6C5.68174 9.6 5.37652 9.47357 5.15147 9.24853C4.92643 9.02348 4.8 8.71826 4.8 8.4C4.8 8.08174 4.92643 7.77652 5.15147 7.55147C5.37652 7.32643 5.68174 7.2 6 7.2H7.2V6C7.2 5.68174 7.32643 5.37652 7.55147 5.15147C7.77652 4.92643 8.08174 4.8 8.4 4.8C8.71826 4.8 9.02348 4.92643 9.24853 5.15147C9.47357 5.37652 9.6 5.68174 9.6 6V7.2H10.8C11.1183 7.2 11.4235 7.32643 11.6485 7.55147C11.8736 7.77652 12 8.08174 12 8.4C12 8.71826 11.8736 9.02348 11.6485 9.24853C11.4235 9.47357 11.1183 9.6 10.8 9.6ZM18 19.2H14.4C14.0817 19.2 13.7765 19.0736 13.5515 18.8485C13.3264 18.6235 13.2 18.3183 13.2 18C13.2 17.6817 13.3264 17.3765 13.5515 17.1515C13.7765 16.9264 14.0817 16.8 14.4 16.8H18C18.3183 16.8 18.6235 16.9264 18.8485 17.1515C19.0736 17.3765 19.2 17.6817 19.2 18C19.2 18.3183 19.0736 18.6235 18.8485 18.8485C18.6235 19.0736 18.3183 19.2 18 19.2ZM18 15.6H14.4C14.0817 15.6 13.7765 15.4736 13.5515 15.2485C13.3264 15.0235 13.2 14.7183 13.2 14.4C13.2 14.0817 13.3264 13.7765 13.5515 13.5515C13.7765 13.3264 14.0817 13.2 14.4 13.2H18C18.3183 13.2 18.6235 13.3264 18.8485 13.5515C19.0736 13.7765 19.2 14.0817 19.2 14.4C19.2 14.7183 19.0736 15.0235 18.8485 15.2485C18.6235 15.4736 18.3183 15.6 18 15.6ZM18.8484 9.3516C19.0734 9.57661 19.1998 9.88179 19.1998 10.2C19.1998 10.5182 19.0734 10.8234 18.8484 11.0484C18.6234 11.2734 18.3182 11.3998 18 11.3998C17.6818 11.3998 17.3766 11.2734 17.1516 11.0484L16.2 10.0968L15.2484 11.0484C15.1372 11.1602 15.005 11.249 14.8594 11.3095C14.7138 11.3701 14.5577 11.4012 14.4 11.4012C14.2423 11.4012 14.0862 11.3701 13.9406 11.3095C13.795 11.249 13.6628 11.1602 13.5516 11.0484C13.3266 10.8234 13.2003 10.5182 13.2003 10.2C13.2003 9.8818 13.3266 9.57663 13.5516 9.3516L14.5032 8.4L13.5516 7.4484C13.3266 7.22339 13.2002 6.91821 13.2002 6.6C13.2002 6.44244 13.2312 6.28642 13.2915 6.14085C13.3518 5.99528 13.4402 5.86301 13.5516 5.7516C13.663 5.64019 13.7953 5.55181 13.9409 5.49151C14.0864 5.43122 14.2424 5.40018 14.4 5.40018C14.7182 5.40018 15.0234 5.52659 15.2484 5.7516L16.2 6.7032L17.1516 5.7516C17.3766 5.52659 17.6818 5.40018 18 5.40018C18.3182 5.40018 18.6234 5.52659 18.8484 5.7516C19.0734 5.97661 19.1998 6.28179 19.1998 6.6C19.1998 6.91821 19.0734 7.22339 18.8484 7.4484L17.8968 8.4L18.8484 9.3516Z" />
</svg>
