<svg viewBox="0 0 24 24" fill="currentColor" xmlns="http://www.w3.org/2000/svg">
<path d="M9.96094 19.6078C10.2516 19.8984 10.2516 20.3672 9.96094 20.6578L8.92969 21.6891C8.4375 22.1672 7.65469 22.1672 7.1625 21.6891L5.42813 19.9547L3.69375 21.6891C3.46406 21.9234 3.14531 22.0594 2.8125 22.0594C2.59219 22.0594 2.38125 22.0031 2.18437 21.9C2.10938 21.8625 2.04375 21.8109 1.98281 21.75L1.25156 21.0187C0.857813 20.625 0.773438 20.0203 1.04063 19.5141C1.08281 19.4391 1.13437 19.3687 1.19531 19.3078L2.98594 17.5172L0.890625 15.4219C0.604688 15.1313 0.604688 14.6625 0.890625 14.3719L2.28281 12.9797C2.42344 12.8391 2.61094 12.7641 2.80781 12.7641C3.00469 12.7641 3.19219 12.8438 3.33281 12.9797L5.42813 15.075L7.51875 12.9844C7.65937 12.8438 7.84688 12.7641 8.04375 12.7687C8.24063 12.7687 8.42813 12.8484 8.56875 12.9891L9.95625 14.3766C10.2469 14.6672 10.2469 15.1359 9.95625 15.4266L7.86563 17.5172L9.96094 19.6078ZM10.8563 4.44375V6.40781C10.8563 6.81562 10.5234 7.14844 10.1156 7.14844H7.15781V10.1109C7.15781 10.5188 6.825 10.8516 6.41719 10.8516H4.44844C4.03594 10.8516 3.70312 10.5188 3.70312 10.1109V7.14844H0.740625C0.332813 7.14844 0 6.81562 0 6.40781V4.44375C0 4.03594 0.332813 3.70312 0.740625 3.70312H3.70312V0.740625C3.70312 0.332813 4.03594 0 4.44844 0H6.4125C6.82031 0 7.15313 0.332813 7.15313 0.740625V3.70312H10.1109C10.5234 3.70312 10.8563 4.03594 10.8563 4.44375ZM18.3656 15.1547C17.4141 15.1641 16.6359 14.4 16.6266 13.4531V13.4156C16.6266 12.4687 17.3953 11.7047 18.3375 11.7H18.3609C19.3078 11.7 20.0719 12.4687 20.0719 13.4156V13.4437C20.0766 14.3859 19.3078 15.15 18.3656 15.1547ZM24 4.44375V6.40781C24 6.81562 23.6672 7.14844 23.2594 7.14844H13.8844C13.4766 7.14844 13.1437 6.81562 13.1437 6.40781V4.44375C13.1437 4.03594 13.4766 3.70312 13.8844 3.70312H23.2594C23.6672 3.70312 24 4.03594 24 4.44375ZM20.0766 21.5859V21.6141C20.0766 22.5656 19.3031 23.3391 18.3516 23.3391C17.4 23.3391 16.6266 22.5656 16.6266 21.6141V21.5859C16.6266 20.6391 17.3953 19.875 18.3375 19.875H18.3609C19.3078 19.8703 20.0766 20.6391 20.0766 21.5859ZM23.775 16.5281V18.4922C23.775 18.9 23.4422 19.2328 23.0344 19.2328H13.6641C13.2563 19.2328 12.9234 18.9 12.9234 18.4922V16.5281C12.9234 16.1203 13.2563 15.7875 13.6641 15.7875H23.0344C23.4422 15.7875 23.775 16.1203 23.775 16.5281Z" />
</svg>
