<svg viewBox="0 0 16 16" fill="currentColor" xmlns="http://www.w3.org/2000/svg">
<path d="M0 -2.07871e-05L16 0C15.8333 -0.166699 16.2357 0 16 0C16 -0.235748 16.1667 0.166699 16 0V16C16.1667 15.8333 16 16.2357 16 16C16.2357 16 15.8333 16.1667 16 16L-2.07871e-05 16C0.166678 16.1667 -0.235769 16 -2.07871e-05 16C-2.07871e-05 16.2357 -0.16672 15.8333 -2.07871e-05 16L0 -2.07871e-05C-0.166699 0.166678 0 -0.235769 0 -2.07871e-05C-0.235748 -2.07871e-05 0.166699 -0.16672 0 -2.07871e-05ZM7.11385 11.5555L13.3983 5.27019L12.1414 4.0133L7.11385 9.04175L4.59918 6.52708L3.34229 7.78397L7.11385 11.5555Z" />
</svg>
