<svg viewBox="0 0 56 57" fill="currentColor" xmlns="http://www.w3.org/2000/svg">
<path d="M55.3164 1.18376C54.4041 0.271428 52.9294 0.271428 52.0171 1.18376L44.4128 8.7881C39.9608 5.07343 34.2394 2.83343 28.0001 2.83343C13.8484 2.83343 2.33343 14.3484 2.33343 28.5001C2.33343 34.7371 4.57576 40.4584 8.2881 44.9128L0.683762 52.5171C-0.228572 53.4294 -0.228572 54.9041 0.683762 55.8164C1.13876 56.2714 1.73609 56.5001 2.33343 56.5001C2.93076 56.5001 3.5281 56.2714 3.98309 55.8164L11.5874 48.2121C16.0394 51.9268 21.7608 54.1668 28.0001 54.1668C42.1518 54.1668 53.6668 42.6518 53.6668 28.5001C53.6668 22.2631 51.4244 16.5418 47.7121 12.0874L55.3164 4.48309C56.2288 3.57076 56.2288 2.09609 55.3164 1.18376ZM7.00009 28.5001C7.00009 16.9221 16.4221 7.50009 28.0001 7.50009C32.9514 7.50009 37.4991 9.23143 41.0924 12.1084L11.6084 41.5924C8.73143 37.9991 7.00009 33.4514 7.00009 28.5001ZM49.0001 28.5001C49.0001 40.0804 39.5781 49.5001 28.0001 49.5001C23.0488 49.5001 18.5011 47.7688 14.9078 44.8918L44.3918 15.4078C47.2688 19.0011 49.0001 23.5488 49.0001 28.5001Z"/>
</svg>
