<svg viewBox="0 0 10 11" fill="currentColor" xmlns="http://www.w3.org/2000/svg">
<path d="M5.00004 9.66665C4.42365 9.66665 3.88199 9.55727 3.37504 9.33852C2.8681 9.11977 2.42712 8.8229 2.05212 8.4479C1.67712 8.0729 1.38025 7.63192 1.1615 7.12498C0.942749 6.61804 0.833374 6.07637 0.833374 5.49998C0.833374 4.92359 0.942749 4.38192 1.1615 3.87498C1.38025 3.36804 1.67712 2.92706 2.05212 2.55206C2.42712 2.17706 2.8681 1.88019 3.37504 1.66144C3.88199 1.44269 4.42365 1.33331 5.00004 1.33331C5.57643 1.33331 6.1181 1.44269 6.62504 1.66144C7.13199 1.88019 7.57296 2.17706 7.94796 2.55206C8.32296 2.92706 8.61983 3.36804 8.83858 3.87498C9.05733 4.38192 9.16671 4.92359 9.16671 5.49998C9.16671 6.07637 9.05733 6.61804 8.83858 7.12498C8.61983 7.63192 8.32296 8.0729 7.94796 8.4479C7.57296 8.8229 7.13199 9.11977 6.62504 9.33852C6.1181 9.55727 5.57643 9.66665 5.00004 9.66665ZM5.00004 8.83331C5.9306 8.83331 6.71879 8.5104 7.36462 7.86456C8.01046 7.21873 8.33337 6.43054 8.33337 5.49998C8.33337 4.56942 8.01046 3.78123 7.36462 3.1354C6.71879 2.48956 5.9306 2.16665 5.00004 2.16665C4.06949 2.16665 3.28129 2.48956 2.63546 3.1354C1.98962 3.78123 1.66671 4.56942 1.66671 5.49998C1.66671 6.43054 1.98962 7.21873 2.63546 7.86456C3.28129 8.5104 4.06949 8.83331 5.00004 8.83331ZM5.00004 8.83331C4.06949 8.83331 3.28129 8.5104 2.63546 7.86456C1.98962 7.21873 1.66671 6.43054 1.66671 5.49998C1.66671 4.56942 1.98962 3.78123 2.63546 3.1354C3.28129 2.48956 4.06949 2.16665 5.00004 2.16665C5.9306 2.16665 6.71879 2.48956 7.36462 3.1354C8.01046 3.78123 8.33337 4.56942 8.33337 5.49998C8.33337 6.43054 8.01046 7.21873 7.36462 7.86456C6.71879 8.5104 5.9306 8.83331 5.00004 8.83331Z" />
</svg>
