<svg viewBox="0 0 24 24" fill="currentColor" xmlns="http://www.w3.org/2000/svg">
<path d="M18.75 5.25C18.75 5.05109 18.829 4.86033 18.9697 4.71967C19.1104 4.57902 19.3011 4.5 19.5 4.5C19.6989 4.5 19.8897 4.57902 20.0304 4.71967C20.171 4.86033 20.25 5.05109 20.25 5.25L20.25 18.4395L21.969 16.719C22.0388 16.6493 22.1215 16.594 22.2127 16.5562C22.3038 16.5185 22.4014 16.4991 22.5 16.4991C22.5986 16.4991 22.6963 16.5185 22.7874 16.5562C22.8785 16.594 22.9613 16.6493 23.031 16.719C23.1008 16.7887 23.1561 16.8715 23.1938 16.9626C23.2316 17.0537 23.251 17.1514 23.251 17.25C23.251 17.3486 23.2316 17.4463 23.1938 17.5374C23.1561 17.6285 23.1008 17.7113 23.031 17.781L20.031 20.7795L20.0205 20.79C19.8797 20.9273 19.6903 21.0034 19.4937 21.0017C19.297 21 19.109 20.9207 18.9705 20.781L15.9705 17.781C15.8297 17.6404 15.7505 17.4496 15.7504 17.2505C15.7502 17.0515 15.8291 16.8606 15.9698 16.7198C16.1104 16.5789 16.3012 16.4997 16.5002 16.4996C16.6993 16.4994 16.8902 16.5784 17.031 16.719L18.75 18.4395L18.75 5.25ZM12.75 18C12.9489 18 13.1397 18.079 13.2804 18.2197C13.421 18.3603 13.5 18.5511 13.5 18.75C13.5 18.9489 13.421 19.1397 13.2804 19.2803C13.1397 19.421 12.9489 19.5 12.75 19.5L11.25 19.5C11.0511 19.5 10.8604 19.421 10.7197 19.2803C10.579 19.1397 10.5 18.9489 10.5 18.75C10.5 18.5511 10.579 18.3603 10.7197 18.2197C10.8604 18.079 11.0511 18 11.25 18L12.75 18ZM12.75 13.5C12.9489 13.5 13.1397 13.579 13.2804 13.7197C13.421 13.8603 13.5 14.0511 13.5 14.25C13.5 14.4489 13.421 14.6397 13.2804 14.7803C13.1397 14.921 12.9489 15 12.75 15L8.25003 15C8.05112 15 7.86035 14.921 7.7197 14.7803C7.57905 14.6397 7.50003 14.4489 7.50003 14.25C7.50003 14.0511 7.57905 13.8603 7.7197 13.7197C7.86035 13.579 8.05112 13.5 8.25003 13.5L12.75 13.5ZM12.75 9C12.9489 9 13.1397 9.07902 13.2804 9.21967C13.421 9.36032 13.5 9.55109 13.5 9.75C13.5 9.94892 13.421 10.1397 13.2804 10.2803C13.1397 10.421 12.9489 10.5 12.75 10.5L5.25003 10.5C5.05112 10.5 4.86035 10.421 4.7197 10.2803C4.57905 10.1397 4.50003 9.94891 4.50003 9.75C4.50003 9.55109 4.57905 9.36032 4.7197 9.21967C4.86035 9.07902 5.05112 9 5.25003 9L12.75 9ZM13.5 5.25C13.5 5.05109 13.421 4.86032 13.2804 4.71967C13.1397 4.57902 12.9489 4.5 12.75 4.5L2.25003 4.5C2.05112 4.5 1.86035 4.57902 1.7197 4.71967C1.57905 4.86032 1.50003 5.05109 1.50003 5.25C1.50003 5.44891 1.57905 5.63968 1.7197 5.78033C1.86035 5.92098 2.05112 6 2.25003 6L12.75 6C12.9489 6 13.1397 5.92099 13.2804 5.78033C13.421 5.63968 13.5 5.44892 13.5 5.25Z" />
</svg>
