<svg viewBox="0 0 24 24" fill="currentColor" xmlns="http://www.w3.org/2000/svg">
<path d="M20.2513 20.2518C20.2513 20.4507 20.1723 20.6414 20.0316 20.7821C19.891 20.9227 19.7002 21.0018 19.5013 21.0018C19.3024 21.0018 19.1116 20.9227 18.971 20.7821C18.8303 20.6414 18.7513 20.4507 18.7513 20.2518L18.7513 7.06225L17.0323 8.78276C16.9626 8.85249 16.8798 8.9078 16.7887 8.94554C16.6976 8.98328 16.5999 9.0027 16.5013 9.0027C16.4027 9.0027 16.305 8.98328 16.2139 8.94554C16.1228 8.9078 16.04 8.85249 15.9703 8.78276C15.9006 8.71302 15.8453 8.63024 15.8075 8.53913C15.7698 8.44802 15.7504 8.35037 15.7504 8.25175C15.7504 8.15314 15.7698 8.05549 15.8075 7.96438C15.8453 7.87327 15.9006 7.79049 15.9703 7.72075L18.9703 4.72226L18.9808 4.71176C19.1216 4.57445 19.311 4.49835 19.5077 4.50003C19.7043 4.50172 19.8924 4.58105 20.0308 4.72076L23.0308 7.72076C23.1716 7.86139 23.2508 8.0522 23.251 8.25123C23.2511 8.45025 23.1722 8.64118 23.0316 8.78201C22.8909 8.92284 22.7001 9.00203 22.5011 9.00217C22.3021 9.00231 22.1111 8.92339 21.9703 8.78276L20.2513 7.06225L20.2513 20.2518ZM12.75 18C12.9489 18 13.1397 18.079 13.2804 18.2197C13.421 18.3603 13.5 18.5511 13.5 18.75C13.5 18.9489 13.421 19.1397 13.2804 19.2803C13.1397 19.421 12.9489 19.5 12.75 19.5L11.25 19.5C11.0511 19.5 10.8604 19.421 10.7197 19.2803C10.579 19.1397 10.5 18.9489 10.5 18.75C10.5 18.5511 10.579 18.3603 10.7197 18.2197C10.8604 18.079 11.0511 18 11.25 18L12.75 18ZM12.75 13.5C12.9489 13.5 13.1397 13.579 13.2804 13.7197C13.421 13.8603 13.5 14.0511 13.5 14.25C13.5 14.4489 13.421 14.6397 13.2804 14.7803C13.1397 14.921 12.9489 15 12.75 15L8.25003 15C8.05112 15 7.86035 14.921 7.7197 14.7803C7.57905 14.6397 7.50003 14.4489 7.50003 14.25C7.50003 14.0511 7.57905 13.8603 7.7197 13.7197C7.86035 13.579 8.05112 13.5 8.25003 13.5L12.75 13.5ZM12.75 9C12.9489 9 13.1397 9.07902 13.2804 9.21967C13.421 9.36032 13.5 9.55109 13.5 9.75C13.5 9.94892 13.421 10.1397 13.2804 10.2803C13.1397 10.421 12.9489 10.5 12.75 10.5L5.25003 10.5C5.05112 10.5 4.86035 10.421 4.7197 10.2803C4.57905 10.1397 4.50003 9.94891 4.50003 9.75C4.50003 9.55109 4.57905 9.36032 4.7197 9.21967C4.86035 9.07902 5.05112 9 5.25003 9L12.75 9ZM13.5 5.25C13.5 5.05109 13.421 4.86032 13.2804 4.71967C13.1397 4.57902 12.9489 4.5 12.75 4.5L2.25003 4.5C2.05112 4.5 1.86035 4.57902 1.7197 4.71967C1.57905 4.86032 1.50003 5.05109 1.50003 5.25C1.50003 5.44891 1.57905 5.63968 1.7197 5.78033C1.86035 5.92098 2.05112 6 2.25003 6L12.75 6C12.9489 6 13.1397 5.92099 13.2804 5.78033C13.421 5.63968 13.5 5.44892 13.5 5.25Z" />
</svg>
